#N canvas 0 96 1280 984 12;
#X obj 334 105 adc~;
#X obj 408 491 noteout;
#X obj 753 360 mantis;
#X floatatom 741 272 5 0 0 0 - - -;
#X floatatom 792 273 5 0 0 0 - - -;
#X floatatom 253 312 5 0 0 0 - - -;
#X floatatom 475 298 5 0 0 0 - - -;
#X obj 337 303 clip 30 127;
#X obj 332 224 sigmund~ notes env;
#X floatatom 680 419 5 0 0 0 - - -;
#X connect 0 0 8 0;
#X connect 0 1 8 0;
#X connect 2 0 9 0;
#X connect 3 0 2 1;
#X connect 4 0 2 2;
#X connect 5 0 1 0;
#X connect 6 0 1 1;
#X connect 8 0 5 0;
#X connect 8 1 6 0;
