#N canvas 1280 96 1280 984 12;
#X obj 334 105 adc~;
#X obj 275 405 noteout;
#X obj 332 224 sigmund~ note env;
#X obj 753 360 mantis;
#X floatatom 740 273 5 0 0 0 - - -;
#X floatatom 792 273 5 0 0 0 - - -;
#X connect 0 0 2 0;
#X connect 0 1 2 0;
#X connect 4 0 3 1;
#X connect 5 0 3 2;
